<svg width="45" height="45" viewBox="0 0 45 45" fill="none" xmlns="http://www.w3.org/2000/svg">
<g clip-path="url(#clip0_11861_1625)">
<path opacity="0.191" fill-rule="evenodd" clip-rule="evenodd" d="M21.5625 -0.0439453C21.6696 -0.0439453 21.7768 -0.0439453 21.8839 -0.0439453C21.7381 1.42151 21.5862 2.88635 21.4286 4.35059C20.7873 5.31476 20.1623 6.31085 19.5536 7.33887C19.5268 7.8067 19.5179 8.27546 19.5268 8.74512C19.2232 8.74512 18.9197 8.74512 18.6161 8.74512C18.6161 9.33108 18.6161 9.91696 18.6161 10.5029C18.3304 10.5029 18.0446 10.5029 17.7589 10.5029C17.7589 21.9873 17.7589 33.4716 17.7589 44.9561C17.6339 44.9561 17.5089 44.9561 17.3839 44.9561C17.3829 44.8117 17.4186 44.6945 17.4911 44.6045C17.4476 44.5416 17.4119 44.4683 17.3839 44.3848C17.4073 43.8406 17.4073 43.3133 17.3839 42.8027C17.395 42.6388 17.4306 42.4923 17.4911 42.3633C17.444 42.2266 17.444 42.0802 17.4911 41.9238C17.4774 41.8073 17.4417 41.7194 17.3839 41.6602C17.4197 41.543 17.4553 41.4258 17.4911 41.3086C17.4197 41.2207 17.4197 41.1328 17.4911 41.0449C17.4452 40.9844 17.4095 40.9112 17.3839 40.8252C17.4407 40.0028 17.4764 39.2118 17.4911 38.4521C17.4437 37.9862 17.4079 37.5174 17.3839 37.0459C17.3924 32.7731 17.4102 28.4957 17.4375 24.2139C17.4033 22.3779 17.3676 20.5469 17.3304 18.7207C17.317 16.9528 17.3349 15.1803 17.3839 13.4033C17.3286 12.5858 17.3019 11.7656 17.3036 10.9424C17.3881 10.3131 17.6024 9.84437 17.9464 9.53613C18.1171 9.13447 18.2778 8.72431 18.4286 8.30566C18.6116 8.10422 18.7991 7.91379 18.9911 7.73438C19.4593 6.9666 19.9057 6.17558 20.3304 5.36133C21.1313 4.68986 21.4616 3.62053 21.3214 2.15332C21.4196 1.61186 21.5179 1.06987 21.6161 0.527344C21.5356 0.351066 21.5534 0.204581 21.6696 0.0878906C21.6206 0.06342 21.5849 0.0194747 21.5625 -0.0439453Z" fill="#F6F6F6"/>
<path opacity="0.989" fill-rule="evenodd" clip-rule="evenodd" d="M21.8839 -0.0439453C22.0625 -0.0439453 22.2411 -0.0439453 22.4196 -0.0439453C22.5674 1.35973 22.7103 2.76598 22.8482 4.1748C22.9046 4.16167 22.9581 4.17632 23.0089 4.21875C23.6452 5.28906 24.2971 6.3291 24.9643 7.33887C24.991 7.8067 25 8.27546 24.9911 8.74512C25.2768 8.74512 25.5625 8.74512 25.8482 8.74512C25.8482 9.33108 25.8482 9.91696 25.8482 10.5029C26.1518 10.5029 26.4553 10.5029 26.7589 10.5029C26.7589 21.9873 26.7589 33.4716 26.7589 44.9561C23.7589 44.9561 20.7589 44.9561 17.7589 44.9561C17.7589 33.4716 17.7589 21.9873 17.7589 10.5029C18.0446 10.5029 18.3304 10.5029 18.6161 10.5029C18.6161 9.91696 18.6161 9.33108 18.6161 8.74512C18.9197 8.74512 19.2232 8.74512 19.5268 8.74512C19.5179 8.27546 19.5268 7.8067 19.5536 7.33887C20.1622 6.31085 20.7873 5.31476 21.4286 4.35059C21.5862 2.88635 21.7381 1.42151 21.8839 -0.0439453Z" fill="#333333"/>
<path opacity="0.996" fill-rule="evenodd" clip-rule="evenodd" d="M21.8304 5.58105C22.1166 5.56646 22.4023 5.58111 22.6875 5.625C23.1607 6.40136 23.634 7.17774 24.1071 7.9541C24.1339 8.33384 24.1428 8.7147 24.1339 9.09668C24.009 9.09668 23.8839 9.09668 23.7589 9.09668C23.7589 8.74512 23.7589 8.39355 23.7589 8.04199C23.6161 8.04199 23.4732 8.04199 23.3304 8.04199C23.3304 8.39355 23.3304 8.74512 23.3304 9.09668C23.1875 9.09668 23.0447 9.09668 22.9018 9.09668C22.9018 8.74512 22.9018 8.39355 22.9018 8.04199C22.7589 8.04199 22.6161 8.04199 22.4732 8.04199C22.4732 8.39355 22.4732 8.74512 22.4732 9.09668C22.3303 9.09668 22.1875 9.09668 22.0446 9.09668C22.0446 8.74512 22.0446 8.39355 22.0446 8.04199C21.9018 8.04199 21.759 8.04199 21.6161 8.04199C21.6161 8.39355 21.6161 8.74512 21.6161 9.09668C21.4732 9.09668 21.3304 9.09668 21.1875 9.09668C21.1875 8.74512 21.1875 8.39355 21.1875 8.04199C21.0446 8.04199 20.9018 8.04199 20.7589 8.04199C20.7589 8.39355 20.7589 8.74512 20.7589 9.09668C20.634 9.09668 20.5089 9.09668 20.3839 9.09668C20.375 8.7147 20.384 8.33384 20.4107 7.9541C20.8948 7.17466 21.368 6.38364 21.8304 5.58105Z" fill="#EFEFEF"/>
<path opacity="0.996" fill-rule="evenodd" clip-rule="evenodd" d="M19.4732 10.1514C21.3304 10.1514 23.1875 10.1514 25.0446 10.1514C25.0446 10.3858 25.0446 10.6201 25.0446 10.8545C23.1875 10.8545 21.3304 10.8545 19.4732 10.8545C19.4732 10.6201 19.4732 10.3858 19.4732 10.1514Z" fill="#EEEEEE"/>
<path opacity="0.066" fill-rule="evenodd" clip-rule="evenodd" d="M22.4196 -0.0439453C22.4911 -0.0439453 22.5625 -0.0439453 22.6339 -0.0439453C22.6248 0.162454 22.607 0.367532 22.5804 0.571289C22.6852 1.66681 22.8191 2.75079 22.9821 3.82324C23.4947 4.60178 24.0215 5.34885 24.5625 6.06445C24.5447 6.09375 24.5268 6.12305 24.5089 6.15234C24.6293 6.2628 24.7007 6.42393 24.7232 6.63574C24.8142 6.62166 24.9035 6.63631 24.9911 6.67969C24.843 6.81539 24.8519 6.91793 25.0179 6.9873C25.0734 7.27319 25.1091 7.56615 25.125 7.86621C25.1428 7.69043 25.1607 7.51465 25.1786 7.33887C25.1822 7.56272 25.2268 7.75316 25.3125 7.91016C25.1158 8.03013 25.0979 8.20591 25.2589 8.4375C25.3325 8.5144 25.4128 8.55834 25.5 8.56934C25.6818 8.46741 25.8604 8.46741 26.0357 8.56934C26.0375 8.99877 26.0464 9.43822 26.0625 9.8877C26.2398 9.82248 26.3916 9.67597 26.5179 9.44824C26.6584 9.62385 26.8013 9.79963 26.9464 9.97559C26.9728 10.0678 26.9639 10.1557 26.9196 10.2393C26.9627 10.3659 26.9984 10.4977 27.0268 10.6348C27.0252 11.9845 26.9894 13.3322 26.9196 14.6777C26.9143 24.7995 26.9322 34.8923 26.9732 44.9561C26.9018 44.9561 26.8303 44.9561 26.7589 44.9561C26.7589 33.4716 26.7589 21.9873 26.7589 10.5029C26.4553 10.5029 26.1518 10.5029 25.8482 10.5029C25.8482 9.91696 25.8482 9.33108 25.8482 8.74512C25.5625 8.74512 25.2768 8.74512 24.9911 8.74512C25 8.27546 24.991 7.8067 24.9643 7.33887C24.2971 6.3291 23.6453 5.28906 23.0089 4.21875C22.9581 4.17632 22.9046 4.16167 22.8482 4.1748C22.7103 2.76598 22.5674 1.35973 22.4196 -0.0439453Z" fill="#F3F3F3"/>
<path fill-rule="evenodd" clip-rule="evenodd" d="M18.6161 11.9092C21.0446 11.9092 23.4732 11.9092 25.9018 11.9092C25.9018 22.4561 25.9018 33.0029 25.9018 43.5498C25.7589 43.5498 25.6161 43.5498 25.4732 43.5498C25.4732 43.1982 25.4732 42.8467 25.4732 42.4951C25.3303 42.4951 25.1875 42.4951 25.0446 42.4951C25.0446 42.8467 25.0446 43.1982 25.0446 43.5498C24.9018 43.5498 24.7589 43.5498 24.6161 43.5498C24.6161 43.1982 24.6161 42.8467 24.6161 42.4951C24.4732 42.4951 24.3304 42.4951 24.1875 42.4951C24.1875 42.8467 24.1875 43.1982 24.1875 43.5498C24.0446 43.5498 23.9018 43.5498 23.7589 43.5498C23.7589 42.6123 23.7589 41.6748 23.7589 40.7373C22.7589 40.7373 21.7589 40.7373 20.7589 40.7373C20.7589 41.6748 20.7589 42.6123 20.7589 43.5498C20.6161 43.5498 20.4732 43.5498 20.3304 43.5498C20.3304 43.1982 20.3304 42.8467 20.3304 42.4951C20.1875 42.4951 20.0447 42.4951 19.9018 42.4951C19.9018 42.8467 19.9018 43.1982 19.9018 43.5498C19.7589 43.5498 19.6161 43.5498 19.4732 43.5498C19.4732 43.1982 19.4732 42.8467 19.4732 42.4951C19.3303 42.4951 19.1875 42.4951 19.0446 42.4951C19.0446 42.8467 19.0446 43.1982 19.0446 43.5498C18.9018 43.5498 18.7589 43.5498 18.6161 43.5498C18.6161 33.0029 18.6161 22.4561 18.6161 11.9092Z" fill="#F1F1F1"/>
<path opacity="0.999" fill-rule="evenodd" clip-rule="evenodd" d="M21.1875 31.5967C21.0446 31.5967 20.9018 31.5967 20.7589 31.5967C20.7589 31.128 20.7589 30.6592 20.7589 30.1904C20.9018 30.1904 21.0446 30.1904 21.1875 30.1904C21.1875 30.6592 21.1875 31.128 21.1875 31.5967Z" fill="#333333"/>
<path opacity="0.999" fill-rule="evenodd" clip-rule="evenodd" d="M19.9018 30.1904C20.0447 30.1904 20.1875 30.1904 20.3304 30.1904C20.3304 30.6592 20.3304 31.128 20.3304 31.5967C20.1875 31.5967 20.0447 31.5967 19.9018 31.5967C19.9018 31.128 19.9018 30.6592 19.9018 30.1904Z" fill="#333333"/>
<path opacity="0.996" fill-rule="evenodd" clip-rule="evenodd" d="M19.0446 30.1904C19.1875 30.1904 19.3303 30.1904 19.4732 30.1904C19.4732 30.6592 19.4732 31.128 19.4732 31.5967C19.3303 31.5967 19.1875 31.5967 19.0446 31.5967C19.0446 31.128 19.0446 30.6592 19.0446 30.1904Z" fill="#333333"/>
<path opacity="0.999" fill-rule="evenodd" clip-rule="evenodd" d="M25.0446 28.4326C25.1875 28.4326 25.3303 28.4326 25.4732 28.4326C25.4732 28.9013 25.4732 29.3701 25.4732 29.8389C25.3303 29.8389 25.1875 29.8389 25.0446 29.8389C25.0446 29.3701 25.0446 28.9013 25.0446 28.4326Z" fill="#333333"/>
<path fill-rule="evenodd" clip-rule="evenodd" d="M24.1875 28.4326C24.3304 28.4326 24.4732 28.4326 24.6161 28.4326C24.6161 28.9013 24.6161 29.3701 24.6161 29.8389C24.4732 29.8389 24.3304 29.8389 24.1875 29.8389C24.1875 29.3701 24.1875 28.9013 24.1875 28.4326Z" fill="#333333"/>
<path fill-rule="evenodd" clip-rule="evenodd" d="M23.3304 28.4326C23.4732 28.4326 23.616 28.4326 23.7589 28.4326C23.7589 28.9013 23.7589 29.3701 23.7589 29.8389C23.616 29.8389 23.4732 29.8389 23.3304 29.8389C23.3304 29.3701 23.3304 28.9013 23.3304 28.4326Z" fill="#323232"/>
<path fill-rule="evenodd" clip-rule="evenodd" d="M22.4732 28.4326C22.6161 28.4326 22.7589 28.4326 22.9018 28.4326C22.9018 28.9013 22.9018 29.3701 22.9018 29.8389C22.7589 29.8389 22.6161 29.8389 22.4732 29.8389C22.4732 29.3701 22.4732 28.9013 22.4732 28.4326Z" fill="#333333"/>
<path fill-rule="evenodd" clip-rule="evenodd" d="M22.0446 28.4326C22.0446 28.9013 22.0446 29.3701 22.0446 29.8389C21.9375 29.8389 21.8304 29.8389 21.7232 29.8389C21.619 29.4086 21.5832 28.9398 21.6161 28.4326C21.7589 28.4326 21.9018 28.4326 22.0446 28.4326Z" fill="#333333"/>
<path opacity="0.999" fill-rule="evenodd" clip-rule="evenodd" d="M20.7589 28.4326C20.9018 28.4326 21.0446 28.4326 21.1875 28.4326C21.1875 28.9013 21.1875 29.3701 21.1875 29.8389C21.0446 29.8389 20.9018 29.8389 20.7589 29.8389C20.7589 29.3701 20.7589 28.9013 20.7589 28.4326Z" fill="#333333"/>
<path opacity="0.999" fill-rule="evenodd" clip-rule="evenodd" d="M19.9018 28.4326C20.0447 28.4326 20.1875 28.4326 20.3304 28.4326C20.3304 28.9013 20.3304 29.3701 20.3304 29.8389C20.1875 29.8389 20.0447 29.8389 19.9018 29.8389C19.9018 29.3701 19.9018 28.9013 19.9018 28.4326Z" fill="#333333"/>
<path opacity="0.996" fill-rule="evenodd" clip-rule="evenodd" d="M19.0446 28.4326C19.1875 28.4326 19.3303 28.4326 19.4732 28.4326C19.4732 28.9013 19.4732 29.3701 19.4732 29.8389C19.3303 29.8389 19.1875 29.8389 19.0446 29.8389C19.0446 29.3701 19.0446 28.9013 19.0446 28.4326Z" fill="#333333"/>
<path fill-rule="evenodd" clip-rule="evenodd" d="M21.1875 25.2686C21.3304 25.2686 21.4732 25.2686 21.6161 25.2686C21.6161 25.6201 21.6161 25.9717 21.6161 26.3232C21.7589 26.3232 21.9018 26.3232 22.0446 26.3232C22.0446 25.9717 22.0446 25.6201 22.0446 25.2686C22.1493 25.7585 22.185 26.2858 22.1518 26.8506C22.2589 26.8506 22.3661 26.8506 22.4732 26.8506C22.4732 27.2608 22.4732 27.6709 22.4732 28.0811C22.6161 28.0811 22.7589 28.0811 22.9018 28.0811C22.9018 27.6709 22.9018 27.2608 22.9018 26.8506C22.9732 26.8506 23.0447 26.8506 23.1161 26.8506C23.1161 27.3779 23.1161 27.9053 23.1161 28.4326C23.0447 28.4326 22.9732 28.4326 22.9018 28.4326C22.7589 28.4326 22.6161 28.4326 22.4732 28.4326C22.3661 28.4326 22.2589 28.4326 22.1518 28.4326C22.1607 28.9315 22.1517 29.4296 22.125 29.9268C21.9784 30.0243 21.8266 30.039 21.6696 29.9707C21.6994 29.937 21.7173 29.8931 21.7232 29.8389C21.8304 29.8389 21.9375 29.8389 22.0446 29.8389C22.0446 29.3701 22.0446 28.9013 22.0446 28.4326C22.0777 28.4229 22.1045 28.3936 22.125 28.3447C22.1339 28.1103 22.1428 27.876 22.1518 27.6416C22.1506 27.37 22.1149 27.1356 22.0446 26.9385C22.0446 26.8506 22.0446 26.7627 22.0446 26.6748C21.8733 26.6277 21.7304 26.6863 21.6161 26.8506C21.4732 26.8506 21.3304 26.8506 21.1875 26.8506C21.1875 26.792 21.1875 26.7334 21.1875 26.6748C21.1875 26.5576 21.1875 26.4404 21.1875 26.3232C21.1875 25.9717 21.1875 25.6201 21.1875 25.2686Z" fill="#FBFBFB"/>
<path opacity="0.999" fill-rule="evenodd" clip-rule="evenodd" d="M25.0446 26.6748C25.1875 26.6748 25.3303 26.6748 25.4732 26.6748C25.4732 27.1435 25.4732 27.6123 25.4732 28.0811C25.3303 28.0811 25.1875 28.0811 25.0446 28.0811C25.0446 27.6123 25.0446 27.1435 25.0446 26.6748Z" fill="#333333"/>
<path fill-rule="evenodd" clip-rule="evenodd" d="M24.1875 26.6748C24.3304 26.6748 24.4732 26.6748 24.6161 26.6748C24.6161 27.1435 24.6161 27.6123 24.6161 28.0811C24.4732 28.0811 24.3304 28.0811 24.1875 28.0811C24.1875 27.6123 24.1875 27.1435 24.1875 26.6748Z" fill="#333333"/>
<path fill-rule="evenodd" clip-rule="evenodd" d="M23.3304 26.6748C23.4732 26.6748 23.616 26.6748 23.7589 26.6748C23.7589 27.1435 23.7589 27.6123 23.7589 28.0811C23.616 28.0811 23.4732 28.0811 23.3304 28.0811C23.3304 27.6123 23.3304 27.1435 23.3304 26.6748Z" fill="#333333"/>
<path fill-rule="evenodd" clip-rule="evenodd" d="M22.9018 26.8506C22.9018 27.2608 22.9018 27.6709 22.9018 28.0811C22.7589 28.0811 22.6161 28.0811 22.4732 28.0811C22.4732 27.6709 22.4732 27.2608 22.4732 26.8506C22.5179 26.7409 22.5893 26.6823 22.6875 26.6748C22.7857 26.6823 22.8571 26.7409 22.9018 26.8506Z" fill="#333333"/>
<path fill-rule="evenodd" clip-rule="evenodd" d="M22.0446 26.9385C22.0446 27.3193 22.0446 27.7002 22.0446 28.0811C21.9018 28.0811 21.7589 28.0811 21.6161 28.0811C21.6161 27.6709 21.6161 27.2608 21.6161 26.8506C21.7304 26.6863 21.8733 26.6277 22.0446 26.6748C22.0446 26.7627 22.0446 26.8506 22.0446 26.9385Z" fill="#333333"/>
<path fill-rule="evenodd" clip-rule="evenodd" d="M21.1875 26.6748C21.1875 26.7334 21.1875 26.792 21.1875 26.8506C21.1875 27.2608 21.1875 27.6709 21.1875 28.0811C21.0446 28.0811 20.9018 28.0811 20.7589 28.0811C20.7589 27.6123 20.7589 27.1435 20.7589 26.6748C20.9018 26.6748 21.0446 26.6748 21.1875 26.6748Z" fill="#333333"/>
<path fill-rule="evenodd" clip-rule="evenodd" d="M19.9018 26.6748C20.0447 26.6748 20.1875 26.6748 20.3304 26.6748C20.3304 27.1435 20.3304 27.6123 20.3304 28.0811C20.1875 28.0811 20.0447 28.0811 19.9018 28.0811C19.9018 27.6123 19.9018 27.1435 19.9018 26.6748Z" fill="#333333"/>
<path opacity="0.996" fill-rule="evenodd" clip-rule="evenodd" d="M19.0446 26.6748C19.1875 26.6748 19.3303 26.6748 19.4732 26.6748C19.4732 27.1435 19.4732 27.6123 19.4732 28.0811C19.3303 28.0811 19.1875 28.0811 19.0446 28.0811C19.0446 27.6123 19.0446 27.1435 19.0446 26.6748Z" fill="#333333"/>
<path opacity="0.999" fill-rule="evenodd" clip-rule="evenodd" d="M25.0446 24.917C25.1875 24.917 25.3303 24.917 25.4732 24.917C25.4732 25.3857 25.4732 25.8545 25.4732 26.3232C25.3303 26.3232 25.1875 26.3232 25.0446 26.3232C25.0446 25.8545 25.0446 25.3857 25.0446 24.917Z" fill="#333333"/>
<path fill-rule="evenodd" clip-rule="evenodd" d="M24.1875 24.917C24.3304 24.917 24.4732 24.917 24.6161 24.917C24.6161 25.3857 24.6161 25.8545 24.6161 26.3232C24.4732 26.3232 24.3304 26.3232 24.1875 26.3232C24.1875 25.8545 24.1875 25.3857 24.1875 24.917Z" fill="#323232"/>
<path fill-rule="evenodd" clip-rule="evenodd" d="M23.3304 24.917C23.4732 24.917 23.616 24.917 23.7589 24.917C23.7589 25.3857 23.7589 25.8545 23.7589 26.3232C23.616 26.3232 23.4732 26.3232 23.3304 26.3232C23.3304 25.8545 23.3304 25.3857 23.3304 24.917Z" fill="#333333"/>
<path fill-rule="evenodd" clip-rule="evenodd" d="M22.4732 24.917C22.6161 24.917 22.7589 24.917 22.9018 24.917C22.9018 25.3857 22.9018 25.8545 22.9018 26.3232C22.7589 26.3232 22.6161 26.3232 22.4732 26.3232C22.4732 25.8545 22.4732 25.3857 22.4732 24.917Z" fill="#333333"/>
<path fill-rule="evenodd" clip-rule="evenodd" d="M22.0446 25.2686C22.0446 25.6201 22.0446 25.9717 22.0446 26.3232C21.9018 26.3232 21.7589 26.3232 21.6161 26.3232C21.6161 25.9717 21.6161 25.6201 21.6161 25.2686C21.6161 25.1514 21.6161 25.0342 21.6161 24.917C21.7589 24.917 21.9018 24.917 22.0446 24.917C22.0446 25.0342 22.0446 25.1514 22.0446 25.2686Z" fill="#333333"/>
<path fill-rule="evenodd" clip-rule="evenodd" d="M21.1875 25.2686C21.1875 25.6201 21.1875 25.9717 21.1875 26.3232C21.0446 26.3232 20.9018 26.3232 20.7589 26.3232C20.7589 25.8545 20.7589 25.3857 20.7589 24.917C20.9018 24.917 21.0446 24.917 21.1875 24.917C21.1875 25.0342 21.1875 25.1514 21.1875 25.2686Z" fill="#333333"/>
<path fill-rule="evenodd" clip-rule="evenodd" d="M19.9018 24.917C20.0447 24.917 20.1875 24.917 20.3304 24.917C20.3304 25.3857 20.3304 25.8545 20.3304 26.3232C20.1875 26.3232 20.0447 26.3232 19.9018 26.3232C19.9018 25.8545 19.9018 25.3857 19.9018 24.917Z" fill="#333333"/>
<path opacity="0.997" fill-rule="evenodd" clip-rule="evenodd" d="M19.0446 24.917C19.1875 24.917 19.3303 24.917 19.4732 24.917C19.4732 25.3857 19.4732 25.8545 19.4732 26.3232C19.3303 26.3232 19.1875 26.3232 19.0446 26.3232C19.0446 25.8545 19.0446 25.3857 19.0446 24.917Z" fill="#323232"/>
<path opacity="0.999" fill-rule="evenodd" clip-rule="evenodd" d="M25.0446 23.1592C25.1875 23.1592 25.3303 23.1592 25.4732 23.1592C25.4732 23.6279 25.4732 24.0967 25.4732 24.5654C25.3303 24.5654 25.1875 24.5654 25.0446 24.5654C25.0446 24.0967 25.0446 23.6279 25.0446 23.1592Z" fill="#333333"/>
<path fill-rule="evenodd" clip-rule="evenodd" d="M24.1875 23.1592C24.3304 23.1592 24.4732 23.1592 24.6161 23.1592C24.6161 23.6279 24.6161 24.0967 24.6161 24.5654C24.4732 24.5654 24.3304 24.5654 24.1875 24.5654C24.1875 24.0967 24.1875 23.6279 24.1875 23.1592Z" fill="#333333"/>
<path fill-rule="evenodd" clip-rule="evenodd" d="M23.3304 23.1592C23.4732 23.1592 23.616 23.1592 23.7589 23.1592C23.7589 23.6279 23.7589 24.0967 23.7589 24.5654C23.616 24.5654 23.4732 24.5654 23.3304 24.5654C23.3304 24.0967 23.3304 23.6279 23.3304 23.1592Z" fill="#333333"/>
<path fill-rule="evenodd" clip-rule="evenodd" d="M22.4732 23.1592C22.6161 23.1592 22.7589 23.1592 22.9018 23.1592C22.9018 23.6279 22.9018 24.0967 22.9018 24.5654C22.7589 24.5654 22.6161 24.5654 22.4732 24.5654C22.4732 24.0967 22.4732 23.6279 22.4732 23.1592Z" fill="#333333"/>
<path fill-rule="evenodd" clip-rule="evenodd" d="M21.6161 23.1592C21.7589 23.1592 21.9018 23.1592 22.0446 23.1592C22.0446 23.6279 22.0446 24.0967 22.0446 24.5654C21.9018 24.5654 21.7589 24.5654 21.6161 24.5654C21.6161 24.0967 21.6161 23.6279 21.6161 23.1592Z" fill="#333333"/>
<path fill-rule="evenodd" clip-rule="evenodd" d="M20.7589 23.1592C20.9018 23.1592 21.0446 23.1592 21.1875 23.1592C21.1875 23.6279 21.1875 24.0967 21.1875 24.5654C21.0446 24.5654 20.9018 24.5654 20.7589 24.5654C20.7589 24.0967 20.7589 23.6279 20.7589 23.1592Z" fill="#333333"/>
<path fill-rule="evenodd" clip-rule="evenodd" d="M19.9018 23.1592C20.0447 23.1592 20.1875 23.1592 20.3304 23.1592C20.3304 23.6279 20.3304 24.0967 20.3304 24.5654C20.1875 24.5654 20.0447 24.5654 19.9018 24.5654C19.9018 24.0967 19.9018 23.6279 19.9018 23.1592Z" fill="#333333"/>
<path opacity="0.997" fill-rule="evenodd" clip-rule="evenodd" d="M19.0446 23.1592C19.1875 23.1592 19.3303 23.1592 19.4732 23.1592C19.4732 23.6279 19.4732 24.0967 19.4732 24.5654C19.3303 24.5654 19.1875 24.5654 19.0446 24.5654C19.0446 24.0967 19.0446 23.6279 19.0446 23.1592Z" fill="#333333"/>
<path opacity="0.999" fill-rule="evenodd" clip-rule="evenodd" d="M25.0446 21.4014C25.1875 21.4014 25.3303 21.4014 25.4732 21.4014C25.4732 21.8701 25.4732 22.3389 25.4732 22.8076C25.3303 22.8076 25.1875 22.8076 25.0446 22.8076C25.0446 22.3389 25.0446 21.8701 25.0446 21.4014Z" fill="#333333"/>
<path fill-rule="evenodd" clip-rule="evenodd" d="M24.1875 21.4014C24.3304 21.4014 24.4732 21.4014 24.6161 21.4014C24.6161 21.8701 24.6161 22.3389 24.6161 22.8076C24.4732 22.8076 24.3304 22.8076 24.1875 22.8076C24.1875 22.3389 24.1875 21.8701 24.1875 21.4014Z" fill="#333333"/>
<path fill-rule="evenodd" clip-rule="evenodd" d="M23.3304 21.4014C23.4732 21.4014 23.616 21.4014 23.7589 21.4014C23.7589 21.8701 23.7589 22.3389 23.7589 22.8076C23.616 22.8076 23.4732 22.8076 23.3304 22.8076C23.3304 22.3389 23.3304 21.8701 23.3304 21.4014Z" fill="#333333"/>
<path fill-rule="evenodd" clip-rule="evenodd" d="M22.4732 21.4014C22.6161 21.4014 22.7589 21.4014 22.9018 21.4014C22.9018 21.8701 22.9018 22.3389 22.9018 22.8076C22.7589 22.8076 22.6161 22.8076 22.4732 22.8076C22.4732 22.3389 22.4732 21.8701 22.4732 21.4014Z" fill="#333333"/>
<path fill-rule="evenodd" clip-rule="evenodd" d="M21.6161 21.4014C21.7589 21.4014 21.9018 21.4014 22.0446 21.4014C22.0446 21.8701 22.0446 22.3389 22.0446 22.8076C21.9018 22.8076 21.7589 22.8076 21.6161 22.8076C21.6161 22.3389 21.6161 21.8701 21.6161 21.4014Z" fill="#333333"/>
<path fill-rule="evenodd" clip-rule="evenodd" d="M20.7589 21.4014C20.9018 21.4014 21.0446 21.4014 21.1875 21.4014C21.1875 21.8701 21.1875 22.3389 21.1875 22.8076C21.0446 22.8076 20.9018 22.8076 20.7589 22.8076C20.7589 22.3389 20.7589 21.8701 20.7589 21.4014Z" fill="#333333"/>
<path fill-rule="evenodd" clip-rule="evenodd" d="M19.9018 21.4014C20.0447 21.4014 20.1875 21.4014 20.3304 21.4014C20.3304 21.8701 20.3304 22.3389 20.3304 22.8076C20.1875 22.8076 20.0447 22.8076 19.9018 22.8076C19.9018 22.3389 19.9018 21.8701 19.9018 21.4014Z" fill="#333333"/>
<path opacity="0.997" fill-rule="evenodd" clip-rule="evenodd" d="M19.0446 21.4014C19.1875 21.4014 19.3303 21.4014 19.4732 21.4014C19.4732 21.8701 19.4732 22.3389 19.4732 22.8076C19.3303 22.8076 19.1875 22.8076 19.0446 22.8076C19.0446 22.3389 19.0446 21.8701 19.0446 21.4014Z" fill="#323232"/>
<path opacity="0.998" fill-rule="evenodd" clip-rule="evenodd" d="M25.0446 19.6436C25.1875 19.6436 25.3303 19.6436 25.4732 19.6436C25.4732 20.1123 25.4732 20.5811 25.4732 21.0498C25.3303 21.0498 25.1875 21.0498 25.0446 21.0498C25.0446 20.5811 25.0446 20.1123 25.0446 19.6436Z" fill="#333333"/>
<path fill-rule="evenodd" clip-rule="evenodd" d="M24.1875 19.6436C24.3304 19.6436 24.4732 19.6436 24.6161 19.6436C24.6161 20.1123 24.6161 20.5811 24.6161 21.0498C24.4732 21.0498 24.3304 21.0498 24.1875 21.0498C24.1875 20.5811 24.1875 20.1123 24.1875 19.6436Z" fill="#333333"/>
<path fill-rule="evenodd" clip-rule="evenodd" d="M23.3304 19.6436C23.4732 19.6436 23.616 19.6436 23.7589 19.6436C23.7589 20.1123 23.7589 20.5811 23.7589 21.0498C23.616 21.0498 23.4732 21.0498 23.3304 21.0498C23.3304 20.5811 23.3304 20.1123 23.3304 19.6436Z" fill="#333333"/>
<path fill-rule="evenodd" clip-rule="evenodd" d="M22.4732 19.6436C22.6161 19.6436 22.7589 19.6436 22.9018 19.6436C22.9018 20.1123 22.9018 20.5811 22.9018 21.0498C22.7589 21.0498 22.6161 21.0498 22.4732 21.0498C22.4732 20.5811 22.4732 20.1123 22.4732 19.6436Z" fill="#333333"/>
<path fill-rule="evenodd" clip-rule="evenodd" d="M21.6161 19.6436C21.7589 19.6436 21.9018 19.6436 22.0446 19.6436C22.0446 20.1123 22.0446 20.5811 22.0446 21.0498C21.9018 21.0498 21.7589 21.0498 21.6161 21.0498C21.6161 20.5811 21.6161 20.1123 21.6161 19.6436Z" fill="#333333"/>
<path fill-rule="evenodd" clip-rule="evenodd" d="M20.7589 19.6436C20.9018 19.6436 21.0446 19.6436 21.1875 19.6436C21.1875 20.1123 21.1875 20.5811 21.1875 21.0498C21.0446 21.0498 20.9018 21.0498 20.7589 21.0498C20.7589 20.5811 20.7589 20.1123 20.7589 19.6436Z" fill="#333333"/>
<path fill-rule="evenodd" clip-rule="evenodd" d="M19.9018 19.6436C20.0447 19.6436 20.1875 19.6436 20.3304 19.6436C20.3304 20.1123 20.3304 20.5811 20.3304 21.0498C20.1875 21.0498 20.0447 21.0498 19.9018 21.0498C19.9018 20.5811 19.9018 20.1123 19.9018 19.6436Z" fill="#333333"/>
<path opacity="0.997" fill-rule="evenodd" clip-rule="evenodd" d="M19.0446 19.6436C19.1875 19.6436 19.3303 19.6436 19.4732 19.6436C19.4732 20.1123 19.4732 20.5811 19.4732 21.0498C19.3303 21.0498 19.1875 21.0498 19.0446 21.0498C19.0446 20.5811 19.0446 20.1123 19.0446 19.6436Z" fill="#323232"/>
<path opacity="0.999" fill-rule="evenodd" clip-rule="evenodd" d="M25.0446 17.8857C25.1875 17.8857 25.3303 17.8857 25.4732 17.8857C25.4732 18.3545 25.4732 18.8233 25.4732 19.292C25.3303 19.292 25.1875 19.292 25.0446 19.292C25.0446 18.8233 25.0446 18.3545 25.0446 17.8857Z" fill="#333333"/>
<path fill-rule="evenodd" clip-rule="evenodd" d="M24.1875 17.8857C24.3304 17.8857 24.4732 17.8857 24.6161 17.8857C24.6161 18.3545 24.6161 18.8233 24.6161 19.292C24.4732 19.292 24.3304 19.292 24.1875 19.292C24.1875 18.8233 24.1875 18.3545 24.1875 17.8857Z" fill="#333333"/>
<path fill-rule="evenodd" clip-rule="evenodd" d="M23.3304 17.8857C23.4732 17.8857 23.616 17.8857 23.7589 17.8857C23.7589 18.3545 23.7589 18.8233 23.7589 19.292C23.616 19.292 23.4732 19.292 23.3304 19.292C23.3304 18.8233 23.3304 18.3545 23.3304 17.8857Z" fill="#333333"/>
<path fill-rule="evenodd" clip-rule="evenodd" d="M22.4732 17.8857C22.6161 17.8857 22.7589 17.8857 22.9018 17.8857C22.9018 18.3545 22.9018 18.8233 22.9018 19.292C22.7589 19.292 22.6161 19.292 22.4732 19.292C22.4732 18.8233 22.4732 18.3545 22.4732 17.8857Z" fill="#333333"/>
<path fill-rule="evenodd" clip-rule="evenodd" d="M21.6161 17.8857C21.7589 17.8857 21.9018 17.8857 22.0446 17.8857C22.0446 18.3545 22.0446 18.8233 22.0446 19.292C21.9018 19.292 21.7589 19.292 21.6161 19.292C21.6161 18.8233 21.6161 18.3545 21.6161 17.8857Z" fill="#333333"/>
<path fill-rule="evenodd" clip-rule="evenodd" d="M20.7589 17.8857C20.9018 17.8857 21.0446 17.8857 21.1875 17.8857C21.1875 18.3545 21.1875 18.8233 21.1875 19.292C21.0446 19.292 20.9018 19.292 20.7589 19.292C20.7589 18.8233 20.7589 18.3545 20.7589 17.8857Z" fill="#333333"/>
<path fill-rule="evenodd" clip-rule="evenodd" d="M19.9018 17.8857C20.0447 17.8857 20.1875 17.8857 20.3304 17.8857C20.3304 18.3545 20.3304 18.8233 20.3304 19.292C20.1875 19.292 20.0447 19.292 19.9018 19.292C19.9018 18.8233 19.9018 18.3545 19.9018 17.8857Z" fill="#333333"/>
<path opacity="0.997" fill-rule="evenodd" clip-rule="evenodd" d="M19.0446 17.8857C19.1875 17.8857 19.3303 17.8857 19.4732 17.8857C19.4732 18.3545 19.4732 18.8233 19.4732 19.292C19.3303 19.292 19.1875 19.292 19.0446 19.292C19.0446 18.8233 19.0446 18.3545 19.0446 17.8857Z" fill="#323232"/>
<path opacity="0.998" fill-rule="evenodd" clip-rule="evenodd" d="M25.0446 16.1279C25.1875 16.1279 25.3303 16.1279 25.4732 16.1279C25.4732 16.5967 25.4732 17.0655 25.4732 17.5342C25.3303 17.5342 25.1875 17.5342 25.0446 17.5342C25.0446 17.0655 25.0446 16.5967 25.0446 16.1279Z" fill="#333333"/>
<path fill-rule="evenodd" clip-rule="evenodd" d="M24.1875 16.1279C24.3304 16.1279 24.4732 16.1279 24.6161 16.1279C24.6161 16.5967 24.6161 17.0655 24.6161 17.5342C24.4732 17.5342 24.3304 17.5342 24.1875 17.5342C24.1875 17.0655 24.1875 16.5967 24.1875 16.1279Z" fill="#333333"/>
<path fill-rule="evenodd" clip-rule="evenodd" d="M23.3304 16.1279C23.4732 16.1279 23.616 16.1279 23.7589 16.1279C23.7589 16.5967 23.7589 17.0655 23.7589 17.5342C23.616 17.5342 23.4732 17.5342 23.3304 17.5342C23.3304 17.0655 23.3304 16.5967 23.3304 16.1279Z" fill="#333333"/>
<path fill-rule="evenodd" clip-rule="evenodd" d="M22.4732 16.1279C22.6161 16.1279 22.7589 16.1279 22.9018 16.1279C22.9018 16.5967 22.9018 17.0655 22.9018 17.5342C22.7589 17.5342 22.6161 17.5342 22.4732 17.5342C22.4732 17.0655 22.4732 16.5967 22.4732 16.1279Z" fill="#333333"/>
<path fill-rule="evenodd" clip-rule="evenodd" d="M21.6161 16.1279C21.7589 16.1279 21.9018 16.1279 22.0446 16.1279C22.0446 16.5967 22.0446 17.0655 22.0446 17.5342C21.9018 17.5342 21.7589 17.5342 21.6161 17.5342C21.6161 17.0655 21.6161 16.5967 21.6161 16.1279Z" fill="#333333"/>
<path opacity="0.999" fill-rule="evenodd" clip-rule="evenodd" d="M20.7589 16.1279C20.9018 16.1279 21.0446 16.1279 21.1875 16.1279C21.1875 16.5967 21.1875 17.0655 21.1875 17.5342C21.0446 17.5342 20.9018 17.5342 20.7589 17.5342C20.7589 17.0655 20.7589 16.5967 20.7589 16.1279Z" fill="#333333"/>
<path opacity="0.999" fill-rule="evenodd" clip-rule="evenodd" d="M19.9018 16.1279C20.0447 16.1279 20.1875 16.1279 20.3304 16.1279C20.3304 16.5967 20.3304 17.0655 20.3304 17.5342C20.1875 17.5342 20.0447 17.5342 19.9018 17.5342C19.9018 17.0655 19.9018 16.5967 19.9018 16.1279Z" fill="#333333"/>
<path opacity="0.996" fill-rule="evenodd" clip-rule="evenodd" d="M19.0446 16.1279C19.1875 16.1279 19.3303 16.1279 19.4732 16.1279C19.4732 16.5967 19.4732 17.0655 19.4732 17.5342C19.3303 17.5342 19.1875 17.5342 19.0446 17.5342C19.0446 17.0655 19.0446 16.5967 19.0446 16.1279Z" fill="#323232"/>
<path opacity="0.997" fill-rule="evenodd" clip-rule="evenodd" d="M25.0446 14.3701C25.1875 14.3701 25.3303 14.3701 25.4732 14.3701C25.4732 14.8388 25.4732 15.3076 25.4732 15.7764C25.3303 15.7764 25.1875 15.7764 25.0446 15.7764C25.0446 15.3076 25.0446 14.8388 25.0446 14.3701Z" fill="#333333"/>
<path opacity="0.999" fill-rule="evenodd" clip-rule="evenodd" d="M24.1875 14.3701C24.3304 14.3701 24.4732 14.3701 24.6161 14.3701C24.6161 14.8388 24.6161 15.3076 24.6161 15.7764C24.4732 15.7764 24.3304 15.7764 24.1875 15.7764C24.1875 15.3076 24.1875 14.8388 24.1875 14.3701Z" fill="#333333"/>
<path fill-rule="evenodd" clip-rule="evenodd" d="M23.3304 14.3701C23.4732 14.3701 23.616 14.3701 23.7589 14.3701C23.7589 14.8388 23.7589 15.3076 23.7589 15.7764C23.616 15.7764 23.4732 15.7764 23.3304 15.7764C23.3304 15.3076 23.3304 14.8388 23.3304 14.3701Z" fill="#333333"/>
<path fill-rule="evenodd" clip-rule="evenodd" d="M22.4732 14.3701C22.6161 14.3701 22.7589 14.3701 22.9018 14.3701C22.9018 14.8388 22.9018 15.3076 22.9018 15.7764C22.7589 15.7764 22.6161 15.7764 22.4732 15.7764C22.4732 15.3076 22.4732 14.8388 22.4732 14.3701Z" fill="#333333"/>
<path fill-rule="evenodd" clip-rule="evenodd" d="M21.6161 14.3701C21.7589 14.3701 21.9018 14.3701 22.0446 14.3701C22.0446 14.8388 22.0446 15.3076 22.0446 15.7764C21.9018 15.7764 21.7589 15.7764 21.6161 15.7764C21.6161 15.3076 21.6161 14.8388 21.6161 14.3701Z" fill="#333333"/>
<path opacity="0.999" fill-rule="evenodd" clip-rule="evenodd" d="M20.7589 14.3701C20.9018 14.3701 21.0446 14.3701 21.1875 14.3701C21.1875 14.8388 21.1875 15.3076 21.1875 15.7764C21.0446 15.7764 20.9018 15.7764 20.7589 15.7764C20.7589 15.3076 20.7589 14.8388 20.7589 14.3701Z" fill="#333333"/>
<path fill-rule="evenodd" clip-rule="evenodd" d="M19.9018 14.3701C20.0447 14.3701 20.1875 14.3701 20.3304 14.3701C20.3304 14.8388 20.3304 15.3076 20.3304 15.7764C20.1875 15.7764 20.0447 15.7764 19.9018 15.7764C19.9018 15.3076 19.9018 14.8388 19.9018 14.3701Z" fill="#333333"/>
<path opacity="0.997" fill-rule="evenodd" clip-rule="evenodd" d="M19.0446 14.3701C19.1875 14.3701 19.3303 14.3701 19.4732 14.3701C19.4732 14.8388 19.4732 15.3076 19.4732 15.7764C19.3303 15.7764 19.1875 15.7764 19.0446 15.7764C19.0446 15.3076 19.0446 14.8388 19.0446 14.3701Z" fill="#333333"/>
<path opacity="0.996" fill-rule="evenodd" clip-rule="evenodd" d="M25.0446 12.6123C25.1875 12.6123 25.3303 12.6123 25.4732 12.6123C25.4732 13.081 25.4732 13.5498 25.4732 14.0186C25.3303 14.0186 25.1875 14.0186 25.0446 14.0186C25.0446 13.5498 25.0446 13.081 25.0446 12.6123Z" fill="#333333"/>
<path opacity="0.996" fill-rule="evenodd" clip-rule="evenodd" d="M24.1875 12.6123C24.3304 12.6123 24.4732 12.6123 24.6161 12.6123C24.6161 13.081 24.6161 13.5498 24.6161 14.0186C24.4732 14.0186 24.3304 14.0186 24.1875 14.0186C24.1875 13.5498 24.1875 13.081 24.1875 12.6123Z" fill="#333333"/>
<path opacity="0.999" fill-rule="evenodd" clip-rule="evenodd" d="M23.3304 12.6123C23.4732 12.6123 23.616 12.6123 23.7589 12.6123C23.7589 13.081 23.7589 13.5498 23.7589 14.0186C23.616 14.0186 23.4732 14.0186 23.3304 14.0186C23.3304 13.5498 23.3304 13.081 23.3304 12.6123Z" fill="#333333"/>
<path fill-rule="evenodd" clip-rule="evenodd" d="M22.4732 12.6123C22.6161 12.6123 22.7589 12.6123 22.9018 12.6123C22.9018 13.081 22.9018 13.5498 22.9018 14.0186C22.7589 14.0186 22.6161 14.0186 22.4732 14.0186C22.4732 13.5498 22.4732 13.081 22.4732 12.6123Z" fill="#333333"/>
<path fill-rule="evenodd" clip-rule="evenodd" d="M21.6161 12.6123C21.7589 12.6123 21.9018 12.6123 22.0446 12.6123C22.0446 13.081 22.0446 13.5498 22.0446 14.0186C21.9018 14.0186 21.7589 14.0186 21.6161 14.0186C21.6161 13.5498 21.6161 13.081 21.6161 12.6123Z" fill="#333333"/>
<path fill-rule="evenodd" clip-rule="evenodd" d="M20.7589 12.6123C20.9018 12.6123 21.0446 12.6123 21.1875 12.6123C21.1875 13.081 21.1875 13.5498 21.1875 14.0186C21.0446 14.0186 20.9018 14.0186 20.7589 14.0186C20.7589 13.5498 20.7589 13.081 20.7589 12.6123Z" fill="#333333"/>
<path fill-rule="evenodd" clip-rule="evenodd" d="M19.9018 12.6123C20.0447 12.6123 20.1875 12.6123 20.3304 12.6123C20.3304 13.081 20.3304 13.5498 20.3304 14.0186C20.1875 14.0186 20.0447 14.0186 19.9018 14.0186C19.9018 13.5498 19.9018 13.081 19.9018 12.6123Z" fill="#333333"/>
<path opacity="0.997" fill-rule="evenodd" clip-rule="evenodd" d="M19.0446 12.6123C19.1875 12.6123 19.3303 12.6123 19.4732 12.6123C19.4732 13.081 19.4732 13.5498 19.4732 14.0186C19.3303 14.0186 19.1875 14.0186 19.0446 14.0186C19.0446 13.5498 19.0446 13.081 19.0446 12.6123Z" fill="#323232"/>
<path fill-rule="evenodd" clip-rule="evenodd" d="M22.0446 31.5967C21.9018 31.5967 21.7589 31.5967 21.6161 31.5967C21.6161 31.128 21.6161 30.6592 21.6161 30.1904C21.7589 30.1904 21.9018 30.1904 22.0446 30.1904C22.0446 30.6592 22.0446 31.128 22.0446 31.5967Z" fill="#333333"/>
<path fill-rule="evenodd" clip-rule="evenodd" d="M22.4732 30.1904C22.6161 30.1904 22.7589 30.1904 22.9018 30.1904C22.9018 30.6592 22.9018 31.128 22.9018 31.5967C22.7589 31.5967 22.6161 31.5967 22.4732 31.5967C22.4732 31.128 22.4732 30.6592 22.4732 30.1904Z" fill="#333333"/>
<path fill-rule="evenodd" clip-rule="evenodd" d="M23.7589 31.5967C23.616 31.5967 23.4732 31.5967 23.3304 31.5967C23.3304 31.128 23.3304 30.6592 23.3304 30.1904C23.4732 30.1904 23.616 30.1904 23.7589 30.1904C23.7589 30.6592 23.7589 31.128 23.7589 31.5967Z" fill="#333333"/>
<path fill-rule="evenodd" clip-rule="evenodd" d="M24.1875 30.1904C24.3304 30.1904 24.4732 30.1904 24.6161 30.1904C24.6161 30.6592 24.6161 31.128 24.6161 31.5967C24.4732 31.5967 24.3304 31.5967 24.1875 31.5967C24.1875 31.128 24.1875 30.6592 24.1875 30.1904Z" fill="#333333"/>
<path opacity="0.998" fill-rule="evenodd" clip-rule="evenodd" d="M25.0446 30.1904C25.1875 30.1904 25.3303 30.1904 25.4732 30.1904C25.4732 30.6592 25.4732 31.128 25.4732 31.5967C25.3303 31.5967 25.1875 31.5967 25.0446 31.5967C25.0446 31.128 25.0446 30.6592 25.0446 30.1904Z" fill="#333333"/>
<path opacity="0.996" fill-rule="evenodd" clip-rule="evenodd" d="M19.0446 31.9482C19.1875 31.9482 19.3303 31.9482 19.4732 31.9482C19.4732 32.417 19.4732 32.8858 19.4732 33.3545C19.3303 33.3545 19.1875 33.3545 19.0446 33.3545C19.0446 32.8858 19.0446 32.417 19.0446 31.9482Z" fill="#333333"/>
<path opacity="0.998" fill-rule="evenodd" clip-rule="evenodd" d="M19.9018 31.9482C20.0447 31.9482 20.1875 31.9482 20.3304 31.9482C20.3304 32.417 20.3304 32.8858 20.3304 33.3545C20.1875 33.3545 20.0447 33.3545 19.9018 33.3545C19.9018 32.8858 19.9018 32.417 19.9018 31.9482Z" fill="#333333"/>
<path opacity="0.999" fill-rule="evenodd" clip-rule="evenodd" d="M21.1875 31.9482C21.1875 32.3584 21.1875 32.7685 21.1875 33.1787C21.0731 33.343 20.9303 33.4016 20.7589 33.3545C20.7589 32.8858 20.7589 32.417 20.7589 31.9482C20.9018 31.9482 21.0446 31.9482 21.1875 31.9482Z" fill="#333333"/>
<path fill-rule="evenodd" clip-rule="evenodd" d="M22.0446 33.1787C22 33.2884 21.9286 33.347 21.8304 33.3545C21.7322 33.347 21.6608 33.2884 21.6161 33.1787C21.6161 32.7685 21.6161 32.3584 21.6161 31.9482C21.7589 31.9482 21.9018 31.9482 22.0446 31.9482C22.0446 32.3584 22.0446 32.7685 22.0446 33.1787Z" fill="#333333"/>
<path fill-rule="evenodd" clip-rule="evenodd" d="M22.9018 33.1787C22.8571 33.2884 22.7857 33.347 22.6875 33.3545C22.5893 33.347 22.5179 33.2884 22.4732 33.1787C22.4732 32.7685 22.4732 32.3584 22.4732 31.9482C22.6161 31.9482 22.7589 31.9482 22.9018 31.9482C22.9018 32.3584 22.9018 32.7685 22.9018 33.1787Z" fill="#333333"/>
<path fill-rule="evenodd" clip-rule="evenodd" d="M23.7589 33.1787C23.7142 33.2884 23.6428 33.347 23.5446 33.3545C23.4464 33.347 23.375 33.2884 23.3304 33.1787C23.3304 32.7685 23.3304 32.3584 23.3304 31.9482C23.4732 31.9482 23.616 31.9482 23.7589 31.9482C23.7589 32.3584 23.7589 32.7685 23.7589 33.1787Z" fill="#333333"/>
<path fill-rule="evenodd" clip-rule="evenodd" d="M24.6161 33.1787C24.5017 33.343 24.3588 33.4016 24.1875 33.3545C24.1875 33.2666 24.1875 33.1787 24.1875 33.0908C24.1875 32.71 24.1875 32.3291 24.1875 31.9482C24.3304 31.9482 24.4732 31.9482 24.6161 31.9482C24.6161 32.3584 24.6161 32.7685 24.6161 33.1787Z" fill="#333333"/>
<path opacity="0.997" fill-rule="evenodd" clip-rule="evenodd" d="M25.0982 33.3545C25.0533 33.3244 25.0354 33.2659 25.0446 33.1787C25.0446 32.7685 25.0446 32.3584 25.0446 31.9482C25.1875 31.9482 25.3303 31.9482 25.4732 31.9482C25.4732 32.417 25.4732 32.8858 25.4732 33.3545C25.3482 33.3545 25.2232 33.3545 25.0982 33.3545Z" fill="#333333"/>
<path fill-rule="evenodd" clip-rule="evenodd" d="M21.1875 31.5967C21.3304 31.5967 21.4732 31.5967 21.6161 31.5967C21.7589 31.5967 21.9018 31.5967 22.0446 31.5967C22.1493 32.0866 22.185 32.6139 22.1518 33.1787C22.2589 33.1787 22.3661 33.1787 22.4732 33.1787C22.5179 33.2884 22.5893 33.347 22.6875 33.3545C22.7857 33.347 22.8571 33.2884 22.9018 33.1787C22.9732 33.1787 23.0447 33.1787 23.1161 33.1787C23.1161 33.7061 23.1161 34.2334 23.1161 34.7607C23.0447 34.7607 22.9732 34.7607 22.9018 34.7607C22.9018 34.4092 22.9018 34.0576 22.9018 33.7061C22.7589 33.7061 22.6161 33.7061 22.4732 33.7061C22.4732 34.0576 22.4732 34.4092 22.4732 34.7607C22.3661 34.7607 22.2589 34.7607 22.1518 34.7607C22.1607 34.2619 22.1517 33.7638 22.125 33.2666C22.1045 33.2177 22.0777 33.1885 22.0446 33.1787C22.0446 32.7685 22.0446 32.3584 22.0446 31.9482C21.9018 31.9482 21.7589 31.9482 21.6161 31.9482C21.6161 32.3584 21.6161 32.7685 21.6161 33.1787C21.4732 33.1787 21.3304 33.1787 21.1875 33.1787C21.1875 32.7685 21.1875 32.3584 21.1875 31.9482C21.1875 31.8311 21.1875 31.7138 21.1875 31.5967Z" fill="#FBFBFB"/>
<path fill-rule="evenodd" clip-rule="evenodd" d="M23.1161 33.1787C23.1875 33.1787 23.2589 33.1787 23.3304 33.1787C23.375 33.2884 23.4464 33.347 23.5446 33.3545C23.6428 33.347 23.7142 33.2884 23.7589 33.1787C23.8661 33.1787 23.9732 33.1787 24.0804 33.1787C24.0804 33.7061 24.0804 34.2334 24.0804 34.7607C23.9732 34.7607 23.8661 34.7607 23.7589 34.7607C23.7589 34.4092 23.7589 34.0576 23.7589 33.7061C23.6161 33.7061 23.4732 33.7061 23.3304 33.7061C23.3304 34.0576 23.3304 34.4092 23.3304 34.7607C23.2589 34.7607 23.1875 34.7607 23.1161 34.7607C23.1161 34.2334 23.1161 33.7061 23.1161 33.1787Z" fill="#E9E9E9"/>
<path fill-rule="evenodd" clip-rule="evenodd" d="M23.3304 31.5967C23.4732 31.5967 23.6161 31.5967 23.7589 31.5967C23.8661 31.5967 23.9732 31.5967 24.0804 31.5967C24.0715 32.0664 24.0804 32.5351 24.1071 33.0029C24.1277 33.0518 24.1544 33.0811 24.1875 33.0908C24.1875 33.1787 24.1875 33.2666 24.1875 33.3545C24.3588 33.4016 24.5017 33.343 24.6161 33.1787C24.7589 33.1787 24.9018 33.1787 25.0446 33.1787C25.0354 33.2659 25.0533 33.3244 25.0982 33.3545C25.0589 33.4607 25.0411 33.5778 25.0446 33.7061C25.0446 34.0576 25.0446 34.4092 25.0446 34.7607C24.9018 34.7607 24.7589 34.7607 24.6161 34.7607C24.6161 34.4092 24.6161 34.0576 24.6161 33.7061C24.4732 33.7061 24.3304 33.7061 24.1875 33.7061C24.1875 34.0576 24.1875 34.4092 24.1875 34.7607C24.1544 34.7705 24.1277 34.7998 24.1071 34.8486C24.0804 35.3458 24.0715 35.8439 24.0804 36.3428C23.9732 36.3428 23.8661 36.3428 23.7589 36.3428C23.7589 36.0498 23.7589 35.7568 23.7589 35.4639C23.6161 35.4639 23.4732 35.4639 23.3304 35.4639C23.3304 35.7568 23.3304 36.0498 23.3304 36.3428C23.2589 36.3428 23.1875 36.3428 23.1161 36.3428C23.1161 35.8154 23.1161 35.2881 23.1161 34.7607C23.1875 34.7607 23.2589 34.7607 23.3304 34.7607C23.3304 34.8779 23.3304 34.9951 23.3304 35.1123C23.4732 35.1123 23.6161 35.1123 23.7589 35.1123C23.7589 34.9951 23.7589 34.8779 23.7589 34.7607C23.8661 34.7607 23.9732 34.7607 24.0804 34.7607C24.0804 34.2334 24.0804 33.7061 24.0804 33.1787C23.9732 33.1787 23.8661 33.1787 23.7589 33.1787C23.7589 32.7685 23.7589 32.3584 23.7589 31.9482C23.6161 31.9482 23.4732 31.9482 23.3304 31.9482C23.3304 32.3584 23.3304 32.7685 23.3304 33.1787C23.2589 33.1787 23.1875 33.1787 23.1161 33.1787C23.1161 32.6514 23.1161 32.124 23.1161 31.5967C23.1875 31.5967 23.2589 31.5967 23.3304 31.5967Z" fill="#FBFBFB"/>
<path opacity="0.996" fill-rule="evenodd" clip-rule="evenodd" d="M19.0446 33.7061C19.1875 33.7061 19.3303 33.7061 19.4732 33.7061C19.4732 34.1748 19.4732 34.6436 19.4732 35.1123C19.3303 35.1123 19.1875 35.1123 19.0446 35.1123C19.0446 34.6436 19.0446 34.1748 19.0446 33.7061Z" fill="#333333"/>
<path opacity="0.997" fill-rule="evenodd" clip-rule="evenodd" d="M19.9018 33.7061C20.0447 33.7061 20.1875 33.7061 20.3304 33.7061C20.3304 34.1748 20.3304 34.6436 20.3304 35.1123C20.1875 35.1123 20.0447 35.1123 19.9018 35.1123C19.9018 34.6436 19.9018 34.1748 19.9018 33.7061Z" fill="#333333"/>
<path opacity="0.999" fill-rule="evenodd" clip-rule="evenodd" d="M20.7589 33.7061C20.9018 33.7061 21.0446 33.7061 21.1875 33.7061C21.1875 34.1748 21.1875 34.6436 21.1875 35.1123C21.0446 35.1123 20.9018 35.1123 20.7589 35.1123C20.7589 34.6436 20.7589 34.1748 20.7589 33.7061Z" fill="#333333"/>
<path fill-rule="evenodd" clip-rule="evenodd" d="M21.6161 33.7061C21.7589 33.7061 21.9018 33.7061 22.0446 33.7061C22.0446 34.1748 22.0446 34.6436 22.0446 35.1123C21.9018 35.1123 21.7589 35.1123 21.6161 35.1123C21.6161 34.6436 21.6161 34.1748 21.6161 33.7061Z" fill="#333333"/>
<path fill-rule="evenodd" clip-rule="evenodd" d="M22.9018 34.7607C22.9018 34.8779 22.9018 34.9951 22.9018 35.1123C22.7589 35.1123 22.6161 35.1123 22.4732 35.1123C22.4732 34.9951 22.4732 34.8779 22.4732 34.7607C22.4732 34.4092 22.4732 34.0576 22.4732 33.7061C22.6161 33.7061 22.7589 33.7061 22.9018 33.7061C22.9018 34.0576 22.9018 34.4092 22.9018 34.7607Z" fill="#333333"/>
<path fill-rule="evenodd" clip-rule="evenodd" d="M23.7589 34.7607C23.7589 34.8779 23.7589 34.9951 23.7589 35.1123C23.616 35.1123 23.4732 35.1123 23.3304 35.1123C23.3304 34.9951 23.3304 34.8779 23.3304 34.7607C23.3304 34.4092 23.3304 34.0576 23.3304 33.7061C23.4732 33.7061 23.616 33.7061 23.7589 33.7061C23.7589 34.0576 23.7589 34.4092 23.7589 34.7607Z" fill="#333333"/>
<path fill-rule="evenodd" clip-rule="evenodd" d="M24.6161 34.7607C24.6161 34.8779 24.6161 34.9951 24.6161 35.1123C24.4732 35.1123 24.3304 35.1123 24.1875 35.1123C24.1875 34.9951 24.1875 34.8779 24.1875 34.7607C24.1875 34.4092 24.1875 34.0576 24.1875 33.7061C24.3304 33.7061 24.4732 33.7061 24.6161 33.7061C24.6161 34.0576 24.6161 34.4092 24.6161 34.7607Z" fill="#333333"/>
<path opacity="0.998" fill-rule="evenodd" clip-rule="evenodd" d="M25.0446 33.7061C25.1875 33.7061 25.3303 33.7061 25.4732 33.7061C25.4732 34.1748 25.4732 34.6436 25.4732 35.1123C25.3303 35.1123 25.1875 35.1123 25.0446 35.1123C25.0446 34.9951 25.0446 34.8779 25.0446 34.7607C25.0446 34.4092 25.0446 34.0576 25.0446 33.7061Z" fill="#333333"/>
<path opacity="0.996" fill-rule="evenodd" clip-rule="evenodd" d="M19.0446 35.4639C19.1875 35.4639 19.3303 35.4639 19.4732 35.4639C19.4732 35.9326 19.4732 36.4014 19.4732 36.8701C19.3303 36.8701 19.1875 36.8701 19.0446 36.8701C19.0446 36.4014 19.0446 35.9326 19.0446 35.4639Z" fill="#333333"/>
<path opacity="0.998" fill-rule="evenodd" clip-rule="evenodd" d="M19.9018 35.4639C20.0447 35.4639 20.1875 35.4639 20.3304 35.4639C20.3304 35.9326 20.3304 36.4014 20.3304 36.8701C20.1875 36.8701 20.0447 36.8701 19.9018 36.8701C19.9018 36.4014 19.9018 35.9326 19.9018 35.4639Z" fill="#323232"/>
<path opacity="0.998" fill-rule="evenodd" clip-rule="evenodd" d="M20.7589 35.4639C20.9018 35.4639 21.0446 35.4639 21.1875 35.4639C21.1875 35.9326 21.1875 36.4014 21.1875 36.8701C21.0446 36.8701 20.9018 36.8701 20.7589 36.8701C20.7589 36.4014 20.7589 35.9326 20.7589 35.4639Z" fill="#333333"/>
<path fill-rule="evenodd" clip-rule="evenodd" d="M21.6161 35.4639C21.7589 35.4639 21.9018 35.4639 22.0446 35.4639C22.0446 35.9326 22.0446 36.4014 22.0446 36.8701C21.9018 36.8701 21.7589 36.8701 21.6161 36.8701C21.6161 36.4014 21.6161 35.9326 21.6161 35.4639Z" fill="#333333"/>
<path fill-rule="evenodd" clip-rule="evenodd" d="M22.4732 35.4639C22.6161 35.4639 22.7589 35.4639 22.9018 35.4639C22.9018 35.9326 22.9018 36.4014 22.9018 36.8701C22.7589 36.8701 22.6161 36.8701 22.4732 36.8701C22.4732 36.4014 22.4732 35.9326 22.4732 35.4639Z" fill="#333333"/>
<path fill-rule="evenodd" clip-rule="evenodd" d="M23.7589 36.3428C23.7589 36.5186 23.7589 36.6943 23.7589 36.8701C23.616 36.8701 23.4732 36.8701 23.3304 36.8701C23.3304 36.6943 23.3304 36.5186 23.3304 36.3428C23.3304 36.0498 23.3304 35.7568 23.3304 35.4639C23.4732 35.4639 23.616 35.4639 23.7589 35.4639C23.7589 35.7568 23.7589 36.0498 23.7589 36.3428Z" fill="#333333"/>
<path fill-rule="evenodd" clip-rule="evenodd" d="M24.1875 35.4639C24.3304 35.4639 24.4732 35.4639 24.6161 35.4639C24.6161 35.9326 24.6161 36.4014 24.6161 36.8701C24.4732 36.8701 24.3304 36.8701 24.1875 36.8701C24.1875 36.4014 24.1875 35.9326 24.1875 35.4639Z" fill="#333333"/>
<path opacity="0.998" fill-rule="evenodd" clip-rule="evenodd" d="M25.0446 35.4639C25.1875 35.4639 25.3303 35.4639 25.4732 35.4639C25.4732 35.9326 25.4732 36.4014 25.4732 36.8701C25.3303 36.8701 25.1875 36.8701 25.0446 36.8701C25.0446 36.4014 25.0446 35.9326 25.0446 35.4639Z" fill="#333333"/>
<path opacity="0.996" fill-rule="evenodd" clip-rule="evenodd" d="M19.0446 37.2217C19.1875 37.2217 19.3303 37.2217 19.4732 37.2217C19.4732 37.6904 19.4732 38.1592 19.4732 38.6279C19.3303 38.6279 19.1875 38.6279 19.0446 38.6279C19.0446 38.1592 19.0446 37.6904 19.0446 37.2217Z" fill="#333333"/>
<path opacity="0.997" fill-rule="evenodd" clip-rule="evenodd" d="M19.9018 37.2217C20.0447 37.2217 20.1875 37.2217 20.3304 37.2217C20.3304 37.6904 20.3304 38.1592 20.3304 38.6279C20.1875 38.6279 20.0447 38.6279 19.9018 38.6279C19.9018 38.1592 19.9018 37.6904 19.9018 37.2217Z" fill="#333333"/>
<path opacity="0.998" fill-rule="evenodd" clip-rule="evenodd" d="M20.7589 37.2217C20.9018 37.2217 21.0446 37.2217 21.1875 37.2217C21.1875 37.6904 21.1875 38.1592 21.1875 38.6279C21.0446 38.6279 20.9018 38.6279 20.7589 38.6279C20.7589 38.1592 20.7589 37.6904 20.7589 37.2217Z" fill="#333333"/>
<path fill-rule="evenodd" clip-rule="evenodd" d="M21.6161 37.2217C21.7589 37.2217 21.9018 37.2217 22.0446 37.2217C22.0446 37.6904 22.0446 38.1592 22.0446 38.6279C21.9018 38.6279 21.7589 38.6279 21.6161 38.6279C21.6161 38.1592 21.6161 37.6904 21.6161 37.2217Z" fill="#333333"/>
<path fill-rule="evenodd" clip-rule="evenodd" d="M23.3304 37.2217C23.4732 37.2217 23.616 37.2217 23.7589 37.2217C23.7589 37.6904 23.7589 38.1592 23.7589 38.6279C23.616 38.6279 23.4732 38.6279 23.3304 38.6279C23.3304 38.1592 23.3304 37.6904 23.3304 37.2217Z" fill="#333333"/>
<path opacity="0.999" fill-rule="evenodd" clip-rule="evenodd" d="M24.1875 37.2217C24.3304 37.2217 24.4732 37.2217 24.6161 37.2217C24.6161 37.6904 24.6161 38.1592 24.6161 38.6279C24.4732 38.6279 24.3304 38.6279 24.1875 38.6279C24.1875 38.1592 24.1875 37.6904 24.1875 37.2217Z" fill="#333333"/>
<path opacity="0.998" fill-rule="evenodd" clip-rule="evenodd" d="M25.0446 37.2217C25.1875 37.2217 25.3303 37.2217 25.4732 37.2217C25.4732 37.6904 25.4732 38.1592 25.4732 38.6279C25.3303 38.6279 25.1875 38.6279 25.0446 38.6279C25.0446 38.1592 25.0446 37.6904 25.0446 37.2217Z" fill="#333333"/>
<path opacity="0.996" fill-rule="evenodd" clip-rule="evenodd" d="M19.0446 38.9795C19.1875 38.9795 19.3303 38.9795 19.4732 38.9795C19.4732 39.4482 19.4732 39.917 19.4732 40.3857C19.3303 40.3857 19.1875 40.3857 19.0446 40.3857C19.0446 39.917 19.0446 39.4482 19.0446 38.9795Z" fill="#333333"/>
<path opacity="0.996" fill-rule="evenodd" clip-rule="evenodd" d="M19.9018 38.9795C20.0447 38.9795 20.1875 38.9795 20.3304 38.9795C20.3304 39.4482 20.3304 39.917 20.3304 40.3857C20.1875 40.3857 20.0447 40.3857 19.9018 40.3857C19.9018 39.917 19.9018 39.4482 19.9018 38.9795Z" fill="#333333"/>
<path opacity="0.996" fill-rule="evenodd" clip-rule="evenodd" d="M20.7589 38.9795C20.9018 38.9795 21.0446 38.9795 21.1875 38.9795C21.1875 39.4482 21.1875 39.917 21.1875 40.3857C21.0446 40.3857 20.9018 40.3857 20.7589 40.3857C20.7589 39.917 20.7589 39.4482 20.7589 38.9795Z" fill="#333333"/>
<path opacity="0.998" fill-rule="evenodd" clip-rule="evenodd" d="M21.6161 38.9795C21.7589 38.9795 21.9018 38.9795 22.0446 38.9795C22.0446 39.4482 22.0446 39.917 22.0446 40.3857C21.9018 40.3857 21.7589 40.3857 21.6161 40.3857C21.6161 39.917 21.6161 39.4482 21.6161 38.9795Z" fill="#333333"/>
<path fill-rule="evenodd" clip-rule="evenodd" d="M22.4732 38.9795C22.6161 38.9795 22.7589 38.9795 22.9018 38.9795C22.9018 39.4482 22.9018 39.917 22.9018 40.3857C22.7589 40.3857 22.6161 40.3857 22.4732 40.3857C22.4732 39.917 22.4732 39.4482 22.4732 38.9795Z" fill="#333333"/>
<path opacity="0.999" fill-rule="evenodd" clip-rule="evenodd" d="M23.3304 38.9795C23.4732 38.9795 23.616 38.9795 23.7589 38.9795C23.7589 39.4482 23.7589 39.917 23.7589 40.3857C23.616 40.3857 23.4732 40.3857 23.3304 40.3857C23.3304 39.917 23.3304 39.4482 23.3304 38.9795Z" fill="#333333"/>
<path opacity="0.998" fill-rule="evenodd" clip-rule="evenodd" d="M24.1875 38.9795C24.3304 38.9795 24.4732 38.9795 24.6161 38.9795C24.6161 39.4482 24.6161 39.917 24.6161 40.3857C24.4732 40.3857 24.3304 40.3857 24.1875 40.3857C24.1875 39.917 24.1875 39.4482 24.1875 38.9795Z" fill="#333333"/>
<path opacity="0.996" fill-rule="evenodd" clip-rule="evenodd" d="M25.0446 38.9795C25.1875 38.9795 25.3303 38.9795 25.4732 38.9795C25.4732 39.4482 25.4732 39.917 25.4732 40.3857C25.3303 40.3857 25.1875 40.3857 25.0446 40.3857C25.0446 39.917 25.0446 39.4482 25.0446 38.9795Z" fill="#333333"/>
<path opacity="0.996" fill-rule="evenodd" clip-rule="evenodd" d="M19.0446 40.7373C19.1875 40.7373 19.3303 40.7373 19.4732 40.7373C19.4732 41.206 19.4732 41.6748 19.4732 42.1436C19.3303 42.1436 19.1875 42.1436 19.0446 42.1436C19.0446 41.6748 19.0446 41.206 19.0446 40.7373Z" fill="#323232"/>
<path opacity="0.996" fill-rule="evenodd" clip-rule="evenodd" d="M19.9018 40.7373C20.0447 40.7373 20.1875 40.7373 20.3304 40.7373C20.3304 41.206 20.3304 41.6748 20.3304 42.1436C20.1875 42.1436 20.0447 42.1436 19.9018 42.1436C19.9018 41.6748 19.9018 41.206 19.9018 40.7373Z" fill="#333333"/>
<path opacity="0.996" fill-rule="evenodd" clip-rule="evenodd" d="M24.1875 40.7373C24.3304 40.7373 24.4732 40.7373 24.6161 40.7373C24.6161 41.206 24.6161 41.6748 24.6161 42.1436C24.4732 42.1436 24.3304 42.1436 24.1875 42.1436C24.1875 41.6748 24.1875 41.206 24.1875 40.7373Z" fill="#333333"/>
<path opacity="0.996" fill-rule="evenodd" clip-rule="evenodd" d="M25.0446 40.7373C25.1875 40.7373 25.3303 40.7373 25.4732 40.7373C25.4732 41.206 25.4732 41.6748 25.4732 42.1436C25.3303 42.1436 25.1875 42.1436 25.0446 42.1436C25.0446 41.6748 25.0446 41.206 25.0446 40.7373Z" fill="#333333"/>
<path opacity="0.996" fill-rule="evenodd" clip-rule="evenodd" d="M21.4018 41.4404C21.9732 41.4404 22.5446 41.4404 23.1161 41.4404C23.1161 41.6748 23.1161 41.9092 23.1161 42.1436C22.5446 42.1436 21.9732 42.1436 21.4018 42.1436C21.4018 41.9092 21.4018 41.6748 21.4018 41.4404Z" fill="#F3F3F3"/>
</g>
<defs>
<clipPath id="clip0_11861_1625">
<rect width="45" height="45" fill="white"/>
</clipPath>
</defs>
</svg>
